<svg width="15" height="17" viewBox="0 0 15 17" fill="none" xmlns="http://www.w3.org/2000/svg">
<path fill-rule="evenodd" clip-rule="evenodd" d="M14.4059 2.77571C14.7301 2.77571 15 3.04488 15 3.38738V3.70404C15 4.0382 14.7301 4.3157 14.4059 4.3157H0.594878C0.269883 4.3157 0 4.0382 0 3.70404V3.38738C0 3.04488 0.269883 2.77571 0.594878 2.77571H3.02464C3.51821 2.77571 3.94775 2.42489 4.05879 1.92989L4.18603 1.36156C4.38378 0.587404 5.03458 0.0732422 5.77939 0.0732422H9.22061C9.95732 0.0732422 10.6154 0.587404 10.8059 1.32073L10.942 1.92906C11.0522 2.42489 11.4818 2.77571 11.9762 2.77571H14.4059ZM13.1715 14.3512C13.4252 11.9871 13.8693 6.37045 13.8693 6.31378C13.8855 6.14212 13.8296 5.97962 13.7185 5.84879C13.5994 5.72629 13.4487 5.65379 13.2825 5.65379H1.72373C1.55678 5.65379 1.39793 5.72629 1.2877 5.84879C1.17586 5.97962 1.12075 6.14212 1.12885 6.31378C1.13034 6.3242 1.14628 6.52204 1.17292 6.85279C1.29128 8.32216 1.62094 12.4147 1.83395 14.3512C1.9847 15.7779 2.92078 16.6745 4.27668 16.707C5.32299 16.7312 6.4009 16.7395 7.50312 16.7395C8.54132 16.7395 9.59573 16.7312 10.6745 16.707C12.0774 16.6828 13.0126 15.802 13.1715 14.3512Z" fill="#989AAC"/>
</svg>
