<svg width="15" height="16" viewBox="0 0 15 16" fill="none" xmlns="http://www.w3.org/2000/svg">
<path fill-rule="evenodd" clip-rule="evenodd" d="M5.3137 15.0963L12.6357 5.62748C13.0337 5.11687 13.1752 4.52652 13.0425 3.92543C12.9276 3.37898 12.5915 2.85941 12.0875 2.46525L10.8583 1.48881C9.78828 0.637781 8.46183 0.727363 7.70132 1.7038L6.87892 2.77072C6.7728 2.9042 6.79933 3.10128 6.93198 3.20878C6.93198 3.20878 9.01009 4.875 9.05431 4.91083C9.1958 5.0452 9.30191 5.22436 9.32844 5.43936C9.37266 5.86039 9.08084 6.25455 8.64753 6.3083C8.44414 6.33518 8.24959 6.27247 8.1081 6.15601L5.92387 4.41813C5.81776 4.3384 5.65858 4.35542 5.57015 4.46292L0.379285 11.1815C0.043249 11.6026 -0.0717105 12.149 0.043249 12.6776L0.706477 15.5531C0.741849 15.7054 0.874495 15.8129 1.03367 15.8129L3.95187 15.7771C4.48246 15.7681 4.97767 15.5263 5.3137 15.0963ZM9.39978 14.2008H14.1582C14.6225 14.2008 15.0001 14.5833 15.0001 15.0536C15.0001 15.5248 14.6225 15.9064 14.1582 15.9064H9.39978C8.93552 15.9064 8.55792 15.5248 8.55792 15.0536C8.55792 14.5833 8.93552 14.2008 9.39978 14.2008Z" fill="#989AAC"/>
</svg>
