<svg width="189" height="45" viewBox="0 0 189 45" fill="none" xmlns="http://www.w3.org/2000/svg">
<path d="M0 27.9265V6.08211C0 5.724 0.198947 5.44548 0.557053 5.20674C0.915158 4.968 1.31305 4.84863 1.75074 4.84863C2.18842 4.84863 2.62611 4.968 2.98421 5.20674C3.34232 5.44548 3.54126 5.724 3.54126 6.08211V14.2389H8.87305C9.19137 14.2389 9.43011 14.3981 9.62905 14.6766C9.828 14.9552 9.90758 15.2735 9.90758 15.6714C9.90758 16.0295 9.828 16.3478 9.62905 16.6263C9.43011 16.9048 9.19137 17.0242 8.87305 17.0242H3.50147V27.8867C3.50147 29.0804 3.78 29.9558 4.29726 30.4333C4.81453 30.9107 5.72968 31.1495 7.04274 31.1495H8.35579C8.83326 31.1495 9.19137 31.3086 9.46989 31.6269C9.74842 31.9453 9.86779 32.3034 9.86779 32.7411C9.86779 33.1787 9.70863 33.5766 9.43011 33.8949C9.15158 34.2133 8.79347 34.3724 8.316 34.3724H7.00295C2.34758 34.3326 0 32.184 0 27.9265Z" fill="#1A237E"/>
<path d="M11.1406 29.0812C11.1406 26.853 11.9762 25.3012 13.6872 24.4258C15.3981 23.5504 17.8253 23.1128 21.0482 23.1128H23.0775V22.1976C23.0775 20.7652 22.6796 19.5317 21.9236 18.4972C21.1278 17.4627 19.9739 16.9056 18.4221 16.9056C17.2284 16.9056 16.1939 17.1046 15.2787 17.5422C14.4034 17.9799 13.9259 18.2187 13.8065 18.2187C13.4086 18.2187 13.0903 18.0197 12.8516 17.6616C12.6128 17.2637 12.4935 16.8658 12.4935 16.4679C12.4935 15.8313 13.1301 15.2344 14.4034 14.757C15.6766 14.2795 17.0693 14.001 18.5017 14.001C21.2869 14.001 23.3162 14.7968 24.6293 16.3486C25.9423 17.9003 26.6187 19.8898 26.6187 22.2374V33.0999C26.6187 33.458 26.4596 33.7763 26.1413 34.0151C25.8229 34.2538 25.3853 34.3732 24.9078 34.3732C24.4701 34.3732 24.0722 34.2538 23.7539 34.0151C23.4356 33.7763 23.2764 33.4978 23.2764 33.1397V31.5083C21.3665 33.657 19.2179 34.7313 16.8703 34.7313C15.1594 34.7313 13.8065 34.2538 12.7322 33.2989C11.6977 32.2643 11.1406 30.8717 11.1406 29.0812ZM14.7217 28.6833C14.7217 29.7576 15.0002 30.5534 15.597 31.0707C16.1939 31.6277 16.9897 31.9062 17.9844 31.9062C19.1781 31.9062 20.332 31.4288 21.4461 30.4738C22.5602 29.5189 23.1173 28.5241 23.1173 27.5294V25.3012H21.645C20.8095 25.3012 20.133 25.341 19.5362 25.3808C18.9394 25.4206 18.3425 25.5001 17.7059 25.6195C17.0693 25.7389 16.552 25.9378 16.1541 26.1766C15.7562 26.4153 15.3981 26.7336 15.1594 27.1713C14.841 27.5692 14.7217 28.0865 14.7217 28.6833Z" fill="#1A237E"/>
<path d="M30.7578 33.06V3.37703C30.7578 3.01892 30.917 2.70061 31.2353 2.50166C31.5536 2.26292 31.9913 2.14355 32.4688 2.14355C32.986 2.14355 33.3839 2.26292 33.742 2.50166C34.1001 2.7404 34.2593 3.01892 34.2593 3.37703V17.2238C34.7765 16.3086 35.4928 15.5526 36.4477 14.916C37.4027 14.2793 38.5168 13.961 39.79 13.961C41.8591 13.961 43.6496 14.7568 45.1218 16.3484C46.6338 17.94 47.35 19.8499 47.35 22.0781V26.4151C47.35 28.5638 46.594 30.4737 45.1218 32.1448C43.6098 33.816 41.8989 34.6516 39.9094 34.6516C38.6361 34.6516 37.4822 34.3332 36.4079 33.6568C35.3336 32.9804 34.5378 32.2244 34.0603 31.3092V33.0202C34.0603 33.3783 33.9012 33.6568 33.5829 33.9353C33.2645 34.1741 32.8667 34.3332 32.4688 34.3332C31.9913 34.3332 31.5934 34.2139 31.2353 33.9353C30.917 33.6966 30.7578 33.3783 30.7578 33.06ZM34.2593 27.569C34.2593 28.2852 34.7368 29.081 35.7315 30.036C36.7262 30.9909 37.8403 31.4286 39.0738 31.4286C40.3471 31.4286 41.4612 30.9113 42.4161 29.8768C43.3711 28.8423 43.8485 27.6884 43.8485 26.4151V22.1179C43.8485 20.8446 43.3711 19.7305 42.4161 18.696C41.4612 17.7012 40.3073 17.184 39.034 17.184C37.7608 17.184 36.6467 17.6217 35.6917 18.5368C34.7368 19.452 34.2593 20.6457 34.2593 22.1179V27.569Z" fill="#1A237E"/>
<path d="M51.25 33.0597V3.33699C51.25 2.97888 51.4092 2.66057 51.7275 2.46162C52.0458 2.22288 52.4835 2.10352 52.9609 2.10352C53.4782 2.10352 53.8761 2.22288 54.2342 2.46162C54.5923 2.70036 54.7515 2.97888 54.7515 3.33699V33.0597C54.7515 33.378 54.5923 33.6566 54.2342 33.9351C53.8761 34.2136 53.4782 34.333 53.0007 34.333C52.5233 34.333 52.1254 34.2136 51.7673 33.9351C51.4489 33.6964 51.25 33.378 51.25 33.0597Z" fill="#1A237E"/>
<path d="M58.6484 26.4148V21.9584C58.6484 19.77 59.484 17.8998 61.1154 16.3083C62.7865 14.7167 64.7362 13.9209 67.0838 13.9209C69.2722 13.9209 71.1821 14.6769 72.8135 16.1491C74.4051 17.6213 75.2407 19.4914 75.2407 21.6798C75.2407 22.5154 75.1611 23.1918 74.9621 23.6693C74.7632 24.1866 74.4449 24.5447 74.047 24.7436C73.6491 24.9426 73.2512 25.1017 72.8931 25.1415C72.535 25.1813 72.0575 25.2211 71.4607 25.2211H62.1897V26.574C62.1897 28.1257 62.7468 29.3592 63.8609 30.3142C64.975 31.2293 66.4074 31.7068 68.1979 31.7068C69.1131 31.7068 69.9486 31.5476 70.6251 31.2691C71.3015 30.9906 71.8585 30.7121 72.2962 30.4335C72.7339 30.155 73.0522 30.0356 73.3308 30.0356C73.7287 30.0356 74.047 30.1948 74.3653 30.5529C74.6438 30.911 74.803 31.2691 74.803 31.6272C74.803 32.2638 74.1663 32.9403 72.8931 33.6167C71.6198 34.2931 70.0282 34.6512 68.1183 34.6512C65.3331 34.6512 63.1049 33.8952 61.3143 32.3832C59.5238 30.8712 58.6484 28.8817 58.6484 26.4148ZM62.1499 22.8735H69.9884C70.7046 22.8735 71.2219 22.794 71.4607 22.595C71.6994 22.3961 71.8585 22.038 71.8585 21.5207C71.8585 20.2474 71.3811 19.1333 70.4659 18.1784C69.5508 17.2234 68.3969 16.746 67.044 16.746C65.731 16.746 64.5771 17.1836 63.6221 18.0988C62.6672 18.9742 62.1897 20.0883 62.1897 21.4013V22.8735H62.1499Z" fill="#1A237E"/>
<path d="M78.3867 42.7685V15.4331C78.3867 15.075 78.5459 14.7567 78.8642 14.5578C79.1825 14.319 79.5804 14.1997 80.0579 14.1997C80.5353 14.1997 80.9332 14.319 81.2516 14.5578C81.5699 14.7965 81.729 15.075 81.729 15.4729V17.2237C82.2463 16.3085 83.0023 15.5525 83.9572 14.9159C84.952 14.2793 86.1059 13.9609 87.3791 13.9609C89.488 13.9609 91.3183 14.7567 92.7905 16.3483C94.2627 17.9399 95.0187 19.8498 95.0187 22.078V26.415C95.0187 28.5637 94.2627 30.4736 92.7905 32.1447C91.2785 33.8159 89.5676 34.6515 87.5781 34.6515C86.3446 34.6515 85.1907 34.3332 84.1562 33.6965C83.1217 33.0599 82.3657 32.2641 81.8882 31.3092V42.7685C81.8882 43.0868 81.729 43.3654 81.3709 43.6439C81.0128 43.9224 80.6149 44.0418 80.1375 44.0418C79.66 44.0418 79.2621 43.9224 78.904 43.6439C78.5857 43.4052 78.3867 43.0868 78.3867 42.7685ZM81.928 27.5689C81.928 28.2851 82.4055 29.0809 83.4002 30.0359C84.3949 30.9908 85.4692 31.4285 86.7425 31.4285C88.0158 31.4285 89.1299 30.9113 90.1246 29.8767C91.1194 28.8422 91.5968 27.6883 91.5968 26.415V22.1178C91.5968 20.8445 91.1194 19.7304 90.1246 18.6959C89.1299 17.7011 88.0158 17.1839 86.6629 17.1839C85.4295 17.1839 84.3154 17.6216 83.3604 18.5367C82.4055 19.4519 81.928 20.6456 81.928 22.1178V27.5689Z" fill="#1A237E"/>
<path d="M97.8047 26.4153V22.118C97.8047 19.9296 98.6403 18.0595 100.272 16.4281C101.943 14.7968 103.892 14.001 106.16 14.001C108.428 14.001 110.378 14.7968 112.049 16.4281C113.72 18.0595 114.556 19.9296 114.556 22.1578V26.4949C114.556 28.6435 113.72 30.5534 112.049 32.2246C110.378 33.8957 108.428 34.7313 106.16 34.7313C103.932 34.7313 101.983 33.8957 100.311 32.2643C98.6005 30.5136 97.8047 28.6037 97.8047 26.4153ZM101.306 26.4153C101.306 27.7283 101.784 28.922 102.739 29.9168C103.694 30.9115 104.847 31.4288 106.121 31.4288C107.434 31.4288 108.588 30.9115 109.543 29.877C110.498 28.8425 110.975 27.6886 110.975 26.4153V22.118C110.975 20.8448 110.498 19.7307 109.543 18.6961C108.588 17.7014 107.434 17.1841 106.121 17.1841C104.808 17.1841 103.654 17.7014 102.699 18.6961C101.744 19.6909 101.266 20.8448 101.266 22.118V26.4153H101.306Z" fill="#1A237E"/>
<path d="M118.016 33.0594V15.4327C118.016 15.0746 118.175 14.7563 118.533 14.5573C118.891 14.3186 119.289 14.1992 119.766 14.1992C120.284 14.1992 120.682 14.3186 121.04 14.5573C121.398 14.7961 121.557 15.0746 121.557 15.4327V33.0196C121.557 33.338 121.398 33.6165 121.04 33.895C120.682 34.1735 120.284 34.2929 119.806 34.2929C119.329 34.2929 118.931 34.1735 118.573 33.895C118.175 33.6961 118.016 33.3777 118.016 33.0594Z" fill="#1A237E"/>
<path d="M125.773 33.0596V15.4329C125.773 15.0748 125.933 14.7565 126.251 14.5575C126.569 14.3188 127.007 14.1994 127.484 14.1994C127.922 14.1994 128.28 14.3188 128.598 14.5575C128.917 14.7963 129.076 15.1146 129.076 15.4329V17.1836C129.514 16.2685 130.27 15.5125 131.264 14.8758C132.259 14.2392 133.453 13.9209 134.766 13.9209C136.755 13.9209 138.506 14.7167 140.018 16.3083C141.49 17.8998 142.246 19.8097 142.246 22.038V32.9801C142.246 33.378 142.087 33.6963 141.729 33.8952C141.371 34.134 140.973 34.2533 140.496 34.2533C140.058 34.2533 139.66 34.134 139.302 33.935C138.944 33.6963 138.785 33.4177 138.785 33.0198V22.1175C138.785 20.8443 138.307 19.6904 137.352 18.6956C136.397 17.6611 135.243 17.1836 133.97 17.1836C132.737 17.1836 131.662 17.6611 130.747 18.5763C129.832 19.4914 129.354 20.6851 129.354 22.1573V33.0596C129.354 33.378 129.156 33.6565 128.797 33.935C128.439 34.2135 128.002 34.3329 127.564 34.3329C127.086 34.3329 126.689 34.2135 126.33 33.935C125.933 33.6963 125.773 33.378 125.773 33.0596Z" fill="#1A237E"/>
<path d="M146.266 27.9265V6.08211C146.266 5.724 146.465 5.44548 146.823 5.20674C147.181 4.968 147.579 4.84863 148.016 4.84863C148.454 4.84863 148.892 4.968 149.25 5.20674C149.608 5.44548 149.807 5.724 149.807 6.08211V14.2389H155.139C155.457 14.2389 155.696 14.3981 155.895 14.6766C156.094 14.9552 156.173 15.2735 156.173 15.6714C156.173 16.0295 156.094 16.3478 155.895 16.6263C155.696 16.9048 155.457 17.0242 155.139 17.0242H149.807V27.8867C149.807 29.0804 150.085 29.9558 150.603 30.4333C151.12 30.9107 152.035 31.1495 153.348 31.1495H154.661C155.139 31.1495 155.497 31.3086 155.775 31.6269C156.054 31.9453 156.173 32.3034 156.173 32.7411C156.173 33.1787 156.014 33.5766 155.736 33.8949C155.457 34.2133 155.099 34.3724 154.621 34.3724H153.308C148.613 34.3326 146.266 32.184 146.266 27.9265Z" fill="#1A237E"/>
<path d="M157.605 26.4148V21.9584C157.605 19.77 158.441 17.8998 160.072 16.3083C161.744 14.7167 163.693 13.9209 166.041 13.9209C168.229 13.9209 170.139 14.6769 171.771 16.1491C173.362 17.6213 174.198 19.4914 174.198 21.6798C174.198 22.5154 174.118 23.1918 173.919 23.6693C173.72 24.1866 173.402 24.5447 173.004 24.7436C172.606 24.9426 172.208 25.1017 171.85 25.1415C171.492 25.1813 171.015 25.2211 170.418 25.2211H161.147V26.574C161.147 28.1257 161.704 29.3592 162.818 30.3142C163.932 31.2293 165.364 31.7068 167.155 31.7068C168.07 31.7068 168.906 31.5476 169.582 31.2691C170.259 30.9906 170.816 30.7121 171.253 30.4335C171.691 30.155 172.009 30.0356 172.288 30.0356C172.686 30.0356 173.004 30.1948 173.322 30.5529C173.601 30.911 173.76 31.2691 173.76 31.6272C173.76 32.2638 173.123 32.9403 171.85 33.6167C170.577 34.2931 168.985 34.6512 167.075 34.6512C164.29 34.6512 162.062 33.8952 160.271 32.3832C158.481 30.8712 157.605 28.8817 157.605 26.4148ZM161.147 22.8735H168.985C169.701 22.8735 170.219 22.794 170.457 22.595C170.696 22.3961 170.855 22.038 170.855 21.5207C170.855 20.2474 170.378 19.1333 169.463 18.1784C168.548 17.2234 167.394 16.746 166.041 16.746C164.728 16.746 163.574 17.1836 162.619 18.0988C161.664 18.9742 161.187 20.0883 161.187 21.4013V22.8735H161.147Z" fill="#1A237E"/>
<path d="M177.34 33.0599V15.4331C177.34 15.075 177.499 14.7567 177.817 14.5578C178.136 14.319 178.573 14.1997 179.051 14.1997C179.488 14.1997 179.886 14.319 180.205 14.5578C180.523 14.7965 180.682 15.075 180.682 15.4729V17.5022C181.199 16.5473 181.955 15.7117 182.91 14.9955C183.905 14.319 185.019 13.9609 186.213 13.9609H187.645C188.003 13.9609 188.322 14.1201 188.6 14.4384C188.879 14.7567 188.998 15.1546 188.998 15.5923C188.998 16.03 188.879 16.3881 188.6 16.7064C188.322 17.0247 188.003 17.1839 187.645 17.1839H186.213C184.78 17.1839 183.507 17.7807 182.433 18.9346C181.359 20.0885 180.841 21.6005 180.841 23.4308V33.0599C180.841 33.3782 180.682 33.6567 180.324 33.9353C179.966 34.2138 179.568 34.3331 179.091 34.3331C178.613 34.3331 178.215 34.2138 177.857 33.9353C177.499 33.6965 177.34 33.3782 177.34 33.0599Z" fill="#1A237E"/>
<path d="M119.724 0.710938C117.058 0.710938 114.949 2.85957 114.949 5.48567C114.949 8.11178 117.098 10.2604 119.724 10.2604C122.35 10.2604 124.499 8.11178 124.499 5.48567C124.499 2.85957 122.39 0.710938 119.724 0.710938Z" fill="#FF6F00"/>
</svg>
