<svg width="26" height="26" viewBox="0 0 26 26" fill="none" xmlns="http://www.w3.org/2000/svg">
<circle cx="13" cy="13" r="13" fill="#E8F2FF"/>
<g clip-path="url(#clip0_887_8866)">
<path d="M12.9137 12.7804C13.7079 12.7804 14.3955 12.4956 14.9574 11.9337C15.5192 11.3718 15.8041 10.6843 15.8041 9.89013C15.8041 9.09618 15.5192 8.40862 14.9573 7.84658C14.3953 7.28482 13.7078 7 12.9137 7C12.1195 7 11.4321 7.28482 10.8702 7.84668C10.3083 8.40853 10.0234 9.09609 10.0234 9.89013C10.0234 10.6843 10.3083 11.3719 10.8703 11.9338C11.4322 12.4955 12.1198 12.7804 12.9137 12.7804Z" fill="#147CFC"/>
<path d="M17.9717 16.2278C17.9555 15.994 17.9228 15.7389 17.8745 15.4696C17.8258 15.1982 17.7631 14.9417 17.688 14.7072C17.6105 14.4649 17.505 14.2255 17.3746 13.9962C17.2393 13.7582 17.0804 13.5509 16.902 13.3803C16.7155 13.2019 16.4872 13.0584 16.2232 12.9538C15.9601 12.8497 15.6685 12.797 15.3565 12.797C15.234 12.797 15.1156 12.8472 14.8868 12.9962C14.746 13.088 14.5813 13.1942 14.3974 13.3117C14.2402 13.4118 14.0273 13.5057 13.7643 13.5906C13.5076 13.6737 13.2471 13.7158 12.9899 13.7158C12.7327 13.7158 12.4723 13.6737 12.2154 13.5906C11.9526 13.5058 11.7397 13.4119 11.5827 13.3118C11.4006 13.1954 11.2358 13.0892 11.0929 12.9961C10.8643 12.8471 10.7458 12.7969 10.6233 12.7969C10.3113 12.7969 10.0198 12.8497 9.75674 12.9539C9.49288 13.0583 9.26446 13.2018 9.07779 13.3804C8.89953 13.5511 8.74051 13.7583 8.60537 13.9962C8.4751 14.2255 8.36963 14.4648 8.29199 14.7073C8.21701 14.9418 8.1543 15.1982 8.10559 15.4696C8.05734 15.7385 8.02457 15.9937 8.00836 16.2281C7.99243 16.4577 7.98438 16.696 7.98438 16.9367C7.98438 17.5631 8.1835 18.0702 8.57617 18.4442C8.96399 18.8132 9.47714 19.0005 10.1012 19.0005H15.8792C16.5032 19.0005 17.0162 18.8133 17.4041 18.4442C17.7969 18.0705 17.996 17.5633 17.996 16.9366C17.9959 16.6948 17.9878 16.4563 17.9717 16.2278Z" fill="#147CFC"/>
</g>
<defs>
<clipPath id="clip0_887_8866">
<rect width="12" height="12" fill="white" transform="translate(7 7)"/>
</clipPath>
</defs>
</svg>
