<svg width="25" height="25" viewBox="0 0 25 25" fill="none" xmlns="http://www.w3.org/2000/svg">
<circle cx="12.5" cy="12.5" r="12.5" fill="custom-active-link"/>
<path fill-rule="evenodd" clip-rule="evenodd" d="M16.1859 10.1884H18.8891C18.8891 8.01793 17.5886 6.75 15.3852 6.75H9.61528C7.41182 6.75 6.11133 8.01793 6.11133 10.1607V14.8393C6.11133 16.9821 7.41182 18.25 9.61528 18.25H15.3852C17.5886 18.25 18.8891 16.9821 18.8891 14.8393V14.64H16.1859C14.9313 14.64 13.9143 13.6484 13.9143 12.4253C13.9143 11.2021 14.9313 10.2105 16.1859 10.2105V10.1884ZM16.1859 11.1404H18.4121C18.6755 11.1404 18.8891 11.3486 18.8891 11.6054V13.2222C18.886 13.4778 18.6742 13.6843 18.4121 13.6873H16.237C15.6019 13.6956 15.0465 13.2717 14.9024 12.6685C14.8303 12.2941 14.9316 11.9078 15.1791 11.613C15.4267 11.3183 15.7952 11.1452 16.1859 11.1404ZM16.2824 12.8402H16.4926C16.7623 12.8402 16.981 12.627 16.981 12.364C16.981 12.101 16.7623 11.8878 16.4926 11.8878H16.2824C16.1534 11.8864 16.0292 11.9353 15.9374 12.0237C15.8457 12.1121 15.794 12.2327 15.794 12.3585C15.794 12.6224 16.0118 12.8371 16.2824 12.8402ZM9.13823 10.1886H12.7444C13.0141 10.1886 13.2328 9.97545 13.2328 9.71247C13.2328 9.44949 13.0141 9.2363 12.7444 9.2363H9.13823C8.8707 9.23628 8.65295 9.44612 8.64984 9.70693C8.64982 9.97082 8.86759 10.1856 9.13823 10.1886Z" fill="white"/>
</svg>
