<svg width="14" height="15" viewBox="0 0 14 15" fill="none" xmlns="http://www.w3.org/2000/svg">
<path d="M13.4219 3.80431C13.2124 3.31937 12.9104 2.87992 12.5328 2.51056C12.1549 2.1401 11.7093 1.8457 11.2203 1.64337C10.7132 1.43273 10.1694 1.32492 9.62031 1.32618C8.85 1.32618 8.09844 1.53712 7.44531 1.93556C7.28906 2.03087 7.14063 2.13556 7 2.24962C6.85938 2.13556 6.71094 2.03087 6.55469 1.93556C5.90156 1.53712 5.15 1.32618 4.37969 1.32618C3.825 1.32618 3.2875 1.43243 2.77969 1.64337C2.28906 1.8465 1.84688 2.13868 1.46719 2.51056C1.08906 2.8795 0.786997 3.31905 0.578125 3.80431C0.360938 4.309 0.25 4.84493 0.25 5.3965C0.25 5.91681 0.35625 6.459 0.567188 7.01056C0.74375 7.4715 0.996875 7.94962 1.32031 8.43243C1.83281 9.1965 2.5375 9.99337 3.4125 10.8012C4.8625 12.1402 6.29844 13.0652 6.35938 13.1027L6.72969 13.3402C6.89375 13.4449 7.10469 13.4449 7.26875 13.3402L7.63906 13.1027C7.7 13.0637 9.13438 12.1402 10.5859 10.8012C11.4609 9.99337 12.1656 9.1965 12.6781 8.43243C13.0016 7.94962 13.2563 7.4715 13.4313 7.01056C13.6422 6.459 13.7484 5.91681 13.7484 5.3965C13.75 4.84493 13.6391 4.309 13.4219 3.80431ZM7 12.1043C7 12.1043 1.4375 8.54025 1.4375 5.3965C1.4375 3.80431 2.75469 2.51368 4.37969 2.51368C5.52188 2.51368 6.5125 3.15118 7 4.08243C7.4875 3.15118 8.47813 2.51368 9.62031 2.51368C11.2453 2.51368 12.5625 3.80431 12.5625 5.3965C12.5625 8.54025 7 12.1043 7 12.1043Z" fill="black" fill-opacity="0.85"/>
</svg>
