<svg width="25" height="25" viewBox="0 0 25 25" fill="none" xmlns="http://www.w3.org/2000/svg">
<circle cx="12.5" cy="12.5" r="12.5" fill="#F5F6F7"/>
<path fill-rule="evenodd" clip-rule="evenodd" d="M15.4241 9.85129C15.4241 11.5034 14.107 12.8282 12.4643 12.8282C10.8217 12.8282 9.50462 11.5034 9.50462 9.85129C9.50462 8.1985 10.8217 6.875 12.4643 6.875C14.107 6.875 15.4241 8.1985 15.4241 9.85129ZM12.4643 18.1253C10.0517 18.1253 7.99169 17.7428 7.99169 16.2128C7.99169 14.6823 10.0385 14.2858 12.4643 14.2858C14.8769 14.2858 16.937 14.6683 16.937 16.1989C16.937 17.7288 14.8901 18.1253 12.4643 18.1253ZM16.6888 9.90492C16.6888 10.7471 16.4376 11.5317 15.9969 12.184C15.9516 12.2511 15.9919 12.3417 16.0718 12.3556C16.182 12.3746 16.296 12.3854 16.4118 12.3885C17.5671 12.4189 18.6041 11.6711 18.8905 10.5451C19.3149 8.87271 18.0689 7.37127 16.4823 7.37127C16.3098 7.37127 16.1449 7.38964 15.9843 7.42256C15.9623 7.42763 15.939 7.43776 15.9264 7.45739C15.9113 7.48146 15.9226 7.51375 15.9377 7.53465C16.4143 8.20653 16.6888 9.02596 16.6888 9.90492ZM18.6022 13.564C19.3785 13.7166 19.8891 14.0282 20.1006 14.481C20.2794 14.8527 20.2794 15.2839 20.1006 15.655C19.777 16.3573 18.7338 16.5827 18.3283 16.641C18.2446 16.6537 18.1772 16.5808 18.186 16.4966C18.3932 14.5506 16.7455 13.628 16.3193 13.4158C16.301 13.4063 16.2972 13.3918 16.2991 13.3829C16.3004 13.3766 16.3079 13.3664 16.3218 13.3645C17.2441 13.3474 18.2358 13.4741 18.6022 13.564ZM8.58867 12.3885C8.70452 12.3854 8.81785 12.3752 8.92865 12.3556C9.00861 12.3417 9.04891 12.2511 9.00358 12.184C8.56286 11.5317 8.31165 10.7471 8.31165 9.90492C8.31165 9.02596 8.58615 8.20653 9.06276 7.53465C9.07787 7.51375 9.08857 7.48146 9.07409 7.45739C9.0615 7.4384 9.03757 7.42763 9.01617 7.42256C8.85499 7.38964 8.69004 7.37127 8.51753 7.37127C6.93095 7.37127 5.68499 8.87271 6.10996 10.5451C6.39643 11.6711 7.43337 12.4189 8.58867 12.3885ZM8.70106 13.3823C8.70295 13.3918 8.69917 13.4057 8.68154 13.4158C8.25468 13.628 6.60703 14.5506 6.81417 16.496C6.82298 16.5808 6.75624 16.653 6.67251 16.641C6.26705 16.5827 5.22381 16.3573 4.9002 15.655C4.72077 15.2833 4.72077 14.8527 4.9002 14.481C5.11174 14.0282 5.62172 13.7166 6.398 13.5634C6.76506 13.4741 7.75604 13.3474 8.67902 13.3645C8.69287 13.3664 8.6998 13.3766 8.70106 13.3823Z" fill="#989AAC"/>
</svg>
