<svg width="25" height="25" viewBox="0 0 25 25" fill="none" xmlns="http://www.w3.org/2000/svg">
<circle cx="12.5" cy="12.5" r="12.5" fill="#F5F6F7"/>
<path d="M13.4842 9.72727C13.4842 9.58189 13.5412 9.44231 13.6431 9.33849L13.6486 9.33293L15.7385 7.24463C15.1209 6.96535 14.4328 6.88079 13.7658 7.00222C13.0989 7.12364 12.4848 7.44529 12.0054 7.92428C11.5261 8.40328 11.2042 9.01688 11.0826 9.68331C10.9843 10.2227 11.021 10.776 11.1867 11.2946L7.60599 14.8726C7.00917 15.4689 7.00724 16.4357 7.60168 17.0344C8.19883 17.6359 9.17098 17.6378 9.77053 17.0388L13.353 13.4591C13.8719 13.6247 14.4256 13.6614 14.9655 13.5631C15.6324 13.4417 16.2465 13.1201 16.7258 12.6411C17.2052 12.1621 17.5271 11.5485 17.6486 10.882C17.7701 10.2156 17.6855 9.52799 17.406 8.91083L15.3105 11.0047C15.2066 11.1065 15.067 11.1635 14.9215 11.1635C14.776 11.1635 14.6363 11.1065 14.5324 11.0047L13.6431 10.116C13.5412 10.0122 13.4842 9.87265 13.4842 9.72727Z" fill="#989AAC"/>
</svg>
