<svg width="14" height="15" viewBox="0 0 14 15" fill="none" xmlns="http://www.w3.org/2000/svg">
<path d="M12.7813 3.62949V1.62793C12.7813 1.35137 12.5578 1.12793 12.2813 1.12793H1.71876C1.4422 1.12793 1.21876 1.35137 1.21876 1.62793V3.62949C0.957822 3.64512 0.75001 3.8623 0.75001 4.12793V6.18574C0.749009 6.56394 0.825587 6.93832 0.97501 7.28574C1.0422 7.44512 1.12501 7.59512 1.21876 7.73731V13.1279C1.21876 13.4029 1.4422 13.6279 1.71876 13.6279H12.2813C12.5578 13.6279 12.7813 13.4045 12.7813 13.1279V7.73731C12.8765 7.59476 12.9581 7.44357 13.025 7.28574C13.1734 6.93731 13.25 6.56699 13.25 6.18574V4.12793C13.25 3.8623 13.0422 3.64512 12.7813 3.62949ZM2.34376 2.25293H11.6563V3.62793H2.34376V2.25293ZM8.00001 12.5045H6.00001V10.8779H8.00001V12.5045ZM11.6563 12.5045H9.00001V10.3779C9.00001 10.1014 8.77657 9.87793 8.50001 9.87793H5.50001C5.22345 9.87793 5.00001 10.1014 5.00001 10.3779V12.5045H2.34376V8.72012C2.38907 8.74199 2.43595 8.76387 2.48438 8.78262C2.83282 8.92949 3.20313 9.00293 3.58438 9.00293C3.96563 9.00293 4.33438 8.92949 4.68438 8.78262C4.90001 8.69199 5.10313 8.57637 5.28907 8.43731C5.2922 8.43574 5.29532 8.43574 5.29845 8.43731C5.48496 8.57696 5.68807 8.69295 5.90313 8.78262C6.25157 8.92949 6.62188 9.00293 7.00313 9.00293C7.38438 9.00293 7.75313 8.92949 8.10313 8.78262C8.31876 8.69199 8.52188 8.57637 8.70782 8.43731C8.71095 8.43574 8.71407 8.43574 8.7172 8.43731C8.90371 8.57696 9.10682 8.69295 9.32188 8.78262C9.67032 8.92949 10.0406 9.00293 10.4219 9.00293C10.8031 9.00293 11.1719 8.92949 11.5219 8.78262C11.5688 8.76231 11.6156 8.74199 11.6625 8.72012V12.5045H11.6563ZM12.125 6.18574C12.125 7.12012 11.3594 7.87793 10.4172 7.87793C9.7797 7.87793 9.22345 7.53262 8.9297 7.02012C8.88438 6.94199 8.80313 6.89356 8.71251 6.89356H8.70313C8.61407 6.89356 8.53126 6.94199 8.48595 7.02012C8.33604 7.28155 8.11959 7.49863 7.8586 7.6493C7.5976 7.79997 7.30137 7.87885 7.00001 7.87793C6.36407 7.87793 5.80938 7.53418 5.51563 7.02324C5.46876 6.94356 5.38438 6.89356 5.2922 6.89356C5.20001 6.89356 5.11407 6.94356 5.06876 7.02324C4.91798 7.28367 4.70125 7.49979 4.44039 7.64983C4.17953 7.79987 3.88375 7.87855 3.58282 7.87793C2.64063 7.87793 1.87501 7.12012 1.87501 6.18574V4.76074C1.87501 4.75606 1.87813 4.75293 1.88282 4.75293H12.1172C12.1219 4.75293 12.125 4.75606 12.125 4.76074V6.18574Z" fill="#1890FF"/>
</svg>
