<svg width="25" height="25" viewBox="0 0 25 25" fill="none" xmlns="http://www.w3.org/2000/svg">
<circle cx="12.5" cy="12.5" r="12.5" fill="#147CFC"/>
<path fill-rule="evenodd" clip-rule="evenodd" d="M14.9853 9.38937H15.1006C16.6148 9.38937 17.8438 10.655 17.8438 12.2075V15.3125C17.8438 16.865 16.6148 18.125 15.1006 18.125H9.89945C8.3852 18.125 7.15625 16.865 7.15625 15.3125V12.2075C7.15625 10.655 8.3852 9.38937 9.89945 9.38937H10.0147C10.0256 8.71437 10.2835 8.08437 10.7498 7.61187C11.2217 7.13375 11.8252 6.89187 12.5055 6.875C13.8661 6.875 14.9689 8 14.9853 9.38937ZM11.3259 8.21332C11.0187 8.52832 10.8486 8.94457 10.8376 9.38895H14.1624C14.1459 8.46645 13.4107 7.71832 12.5055 7.71832C12.083 7.71832 11.6441 7.8927 11.3259 8.21332ZM14.5849 11.5544C14.8153 11.5544 14.9963 11.3631 14.9963 11.1325V10.48C14.9963 10.2494 14.8153 10.0581 14.5849 10.0581C14.3599 10.0581 14.1734 10.2494 14.1734 10.48V11.1325C14.1734 11.3631 14.3599 11.5544 14.5849 11.5544ZM10.7773 11.1327C10.7773 11.3634 10.5962 11.5546 10.3658 11.5546C10.1409 11.5546 9.95432 11.3634 9.95432 11.1327V10.4802C9.95432 10.2496 10.1409 10.0584 10.3658 10.0584C10.5962 10.0584 10.7773 10.2496 10.7773 10.4802V11.1327Z" fill="white"/>
</svg>
