<svg width="14" height="15" viewBox="0 0 14 15" fill="none" xmlns="http://www.w3.org/2000/svg">
<g clip-path="url(#clip0_951_3283)">
<path d="M12 1.12598H10.3125V0.500977C10.3125 0.432227 10.2563 0.375977 10.1875 0.375977H9.3125C9.24375 0.375977 9.1875 0.432227 9.1875 0.500977V1.12598H6.8125V0.500977C6.8125 0.432227 6.75625 0.375977 6.6875 0.375977H5.8125C5.74375 0.375977 5.6875 0.432227 5.6875 0.500977V1.12598H4C3.72344 1.12598 3.5 1.34941 3.5 1.62598V3.50098H2C1.72344 3.50098 1.5 3.72441 1.5 4.00098V13.876C1.5 14.1525 1.72344 14.376 2 14.376H10C10.2766 14.376 10.5 14.1525 10.5 13.876V12.376H12C12.2766 12.376 12.5 12.1525 12.5 11.876V1.62598C12.5 1.34941 12.2766 1.12598 12 1.12598ZM9.375 13.251H2.625V4.62598H6.03125V7.34473C6.03125 7.69004 6.31094 7.96973 6.65625 7.96973H9.375V13.251ZM9.375 6.96973H7.03125V4.62598H7.03438L9.375 6.9666V6.96973ZM11.375 11.251H10.5V6.50098L7.5 3.50098H4.625V2.25098H5.6875V2.75098C5.6875 2.81973 5.74375 2.87598 5.8125 2.87598H6.6875C6.75625 2.87598 6.8125 2.81973 6.8125 2.75098V2.25098H9.1875V2.75098C9.1875 2.81973 9.24375 2.87598 9.3125 2.87598H10.1875C10.2563 2.87598 10.3125 2.81973 10.3125 2.75098V2.25098H11.375V11.251Z" fill="black" fill-opacity="0.85"/>
</g>
<defs>
<clipPath id="clip0_951_3283">
<rect width="14" height="14" fill="white" transform="translate(0 0.375977)"/>
</clipPath>
</defs>
</svg>
