<svg width="14" height="15" viewBox="0 0 14 15" fill="none" xmlns="http://www.w3.org/2000/svg">
<g clip-path="url(#clip0_951_3275)">
<rect width="14" height="14" transform="translate(0 0.375977)" fill="white" fill-opacity="0.01"/>
<path d="M11.8782 10.3142C11.4871 9.92282 11.0301 9.60336 10.5282 9.37048C11.236 8.79705 11.6875 7.92205 11.6875 6.9408C11.6875 5.20955 10.2438 3.78923 8.51254 3.8158C6.80785 3.84236 5.43441 5.23142 5.43441 6.9408C5.43441 7.92205 5.88754 8.79705 6.59379 9.37048C6.09177 9.60319 5.63476 9.92267 5.24379 10.3142C4.39066 11.1689 3.90629 12.297 3.87504 13.5002C3.87462 13.5168 3.87755 13.5334 3.88364 13.549C3.88974 13.5645 3.89888 13.5786 3.91053 13.5906C3.92218 13.6025 3.9361 13.612 3.95147 13.6185C3.96684 13.625 3.98336 13.6283 4.00004 13.6283H4.87504C4.94223 13.6283 4.99848 13.5752 5.00004 13.508C5.02973 12.6017 5.39691 11.7533 6.04223 11.1095C6.37245 10.7776 6.76523 10.5144 7.19784 10.3352C7.63045 10.1561 8.0943 10.0645 8.56254 10.0658C9.5141 10.0658 10.4094 10.4361 11.0829 11.1095C11.7266 11.7533 12.0938 12.6017 12.125 13.508C12.1266 13.5752 12.1829 13.6283 12.25 13.6283H13.125C13.1417 13.6283 13.1582 13.625 13.1736 13.6185C13.189 13.612 13.2029 13.6025 13.2146 13.5906C13.2262 13.5786 13.2353 13.5645 13.2414 13.549C13.2475 13.5334 13.2505 13.5168 13.25 13.5002C13.2188 12.297 12.7344 11.1689 11.8782 10.3142ZM8.56254 8.9408C8.02816 8.9408 7.52504 8.73299 7.14848 8.35486C6.9595 8.16737 6.81022 7.94373 6.70955 7.6973C6.60888 7.45086 6.55888 7.18667 6.56254 6.92048C6.56723 6.40798 6.77191 5.91267 7.12973 5.54548C7.50473 5.16111 8.00629 4.94705 8.54223 4.9408C9.07191 4.93611 9.58598 5.14236 9.9641 5.51267C10.3516 5.89236 10.5641 6.40017 10.5641 6.9408C10.5641 7.47517 10.3563 7.97673 9.97816 8.35486C9.79265 8.54126 9.57202 8.68902 9.32903 8.7896C9.08604 8.89017 8.82552 8.94156 8.56254 8.9408ZM4.64848 7.3533C4.63441 7.21736 4.6266 7.07986 4.6266 6.9408C4.6266 6.69236 4.65004 6.45017 4.69379 6.21423C4.70473 6.15798 4.67504 6.10017 4.62348 6.07673C4.41098 5.98142 4.21566 5.85017 4.04691 5.68455C3.84807 5.49175 3.6916 5.25961 3.58748 5.00296C3.48337 4.7463 3.4339 4.47076 3.44223 4.19392C3.45629 3.69236 3.65785 3.2158 4.00941 2.85642C4.39535 2.46111 4.9141 2.24548 5.46566 2.25173C5.9641 2.25642 6.44535 2.44861 6.80941 2.78923C6.93285 2.90486 7.0391 3.03298 7.12816 3.17048C7.15941 3.21892 7.22035 3.23923 7.27348 3.22048C7.54848 3.12517 7.8391 3.05798 8.13754 3.02673C8.22504 3.01736 8.27504 2.92361 8.23598 2.84548C7.72816 1.8408 6.69066 1.14705 5.49066 1.1283C3.75785 1.10173 2.3141 2.52205 2.3141 4.25173C2.3141 5.23298 2.76566 6.10798 3.47348 6.68142C2.9766 6.91111 2.51879 7.2283 2.12191 7.62517C1.26566 8.47986 0.781289 9.60798 0.750039 10.8127C0.749622 10.8293 0.752547 10.8459 0.758642 10.8615C0.764737 10.877 0.773878 10.8911 0.785527 10.9031C0.797176 10.915 0.811098 10.9245 0.826471 10.931C0.841844 10.9375 0.858358 10.9408 0.875039 10.9408H1.7516C1.81879 10.9408 1.87504 10.8877 1.8766 10.8205C1.90629 9.91423 2.27348 9.0658 2.91879 8.42205C3.37816 7.96267 3.94066 7.64392 4.55473 7.48923C4.61566 7.47361 4.65629 7.4158 4.64848 7.3533Z" fill="black" fill-opacity="0.85"/>
</g>
<defs>
<clipPath id="clip0_951_3275">
<rect width="14" height="14" fill="white" transform="translate(0 0.375977)"/>
</clipPath>
</defs>
</svg>
